<?xml version="1.0" encoding="iso-8859-1"?>
<!-- Generator: Adobe Illustrator 16.0.0, SVG Export Plug-In . SVG Version: 6.00 Build 0)  -->
<!DOCTYPE svg PUBLIC "-//W3C//DTD SVG 1.1//EN" "http://www.w3.org/Graphics/SVG/1.1/DTD/svg11.dtd">
<svg version="1.1" id="Capa_1" xmlns="http://www.w3.org/2000/svg" xmlns:xlink="http://www.w3.org/1999/xlink" x="0px" y="0px"
	 width="23.303px" height="23.303px"  fill="#5f5f5f" viewBox="0 0 23.303 23.303" style="enable-background:new 0 0 23.303 23.303;"
	 xml:space="preserve">
<g>
	<g>
		<path d="M14.379,18.432H3.521V2.859h10.855v1.165h1.459V2.541C15.836,1.144,14.689,0,13.293,0H4.606
			C3.208,0,2.064,1.144,2.064,2.541v18.22c0,1.399,1.144,2.542,2.542,2.542h8.687c1.396,0,2.543-1.143,2.543-2.542v-2.356h-1.457
			V18.432z M8.948,22.031c-0.644,0-1.164-0.521-1.164-1.164c0-0.645,0.52-1.165,1.164-1.165c0.645,0,1.166,0.521,1.166,1.165
			C10.114,21.51,9.593,22.031,8.948,22.031z"/>
		<rect x="4.765" y="4.422" width="3.257" height="1.986"/>
		<rect x="4.765" y="9.507" width="3.257" height="1.986"/>
		<rect x="4.765" y="14.829" width="3.257" height="1.985"/>
		<path d="M19.582,10.38c-0.115-0.602-0.348-1.159-0.678-1.646l1.168-1.169l-1.193-1.189l-1.166,1.167
			c-0.485-0.332-1.045-0.562-1.645-0.678V5.21h-1.688v1.655c-0.601,0.116-1.156,0.347-1.646,0.678l-1.164-1.167l-1.193,1.19
			l1.166,1.169c-0.329,0.487-0.561,1.044-0.676,1.645H9.214v1.687h1.653c0.115,0.599,0.348,1.156,0.677,1.645l-1.167,1.167
			l1.193,1.188l1.167-1.166c0.488,0.332,1.045,0.563,1.646,0.68v1.652h1.688V15.58c0.6-0.115,1.156-0.348,1.645-0.678l1.166,1.166
			l1.193-1.189l-1.168-1.167c0.33-0.487,0.562-1.045,0.678-1.646h1.654l0,0V10.38H19.582z M15.226,13.059
			c-1.015,0-1.839-0.82-1.839-1.836c0-1.015,0.824-1.84,1.839-1.84c1.016,0,1.836,0.824,1.836,1.84
			C17.062,12.24,16.24,13.059,15.226,13.059z"/>
	</g>
</g>
<g>
</g>
<g>
</g>
<g>
</g>
<g>
</g>
<g>
</g>
<g>
</g>
<g>
</g>
<g>
</g>
<g>
</g>
<g>
</g>
<g>
</g>
<g>
</g>
<g>
</g>
<g>
</g>
<g>
</g>
</svg>
